<mxfile host="Electron" modified="2024-06-25T22:43:19.285Z" agent="Mozilla/5.0 (Windows NT 10.0; Win64; x64) AppleWebKit/537.36 (KHTML, like Gecko) draw.io/24.6.1 Chrome/124.0.6367.207 Electron/30.0.6 Safari/537.36" etag="RP6J6LifPZcKMx68lp4O" version="24.6.1" type="device">
  <diagram name="Page-1" id="m6w_FL0u--nH_A91IABL">
    <mxGraphModel dx="880" dy="524" grid="1" gridSize="10" guides="1" tooltips="1" connect="1" arrows="1" fold="1" page="1" pageScale="1" pageWidth="850" pageHeight="1100" math="0" shadow="0">
      <root>
        <mxCell id="0" />
        <mxCell id="1" parent="0" />
        <mxCell id="-RKkQt0E2VqLK8YI1WEQ-7" style="edgeStyle=orthogonalEdgeStyle;rounded=0;orthogonalLoop=1;jettySize=auto;html=1;entryX=0;entryY=0.5;entryDx=0;entryDy=0;" parent="1" source="-RKkQt0E2VqLK8YI1WEQ-1" target="-RKkQt0E2VqLK8YI1WEQ-4" edge="1">
          <mxGeometry relative="1" as="geometry" />
        </mxCell>
        <mxCell id="-RKkQt0E2VqLK8YI1WEQ-8" value="POST /api/ingressos" style="edgeLabel;html=1;align=center;verticalAlign=middle;resizable=0;points=[];" parent="-RKkQt0E2VqLK8YI1WEQ-7" vertex="1" connectable="0">
          <mxGeometry x="-0.2471" y="1" relative="1" as="geometry">
            <mxPoint x="29" y="-9" as="offset" />
          </mxGeometry>
        </mxCell>
        <mxCell id="-RKkQt0E2VqLK8YI1WEQ-1" value="Cliente" style="shape=umlActor;verticalLabelPosition=bottom;verticalAlign=top;html=1;outlineConnect=0;" parent="1" vertex="1">
          <mxGeometry x="40" y="30" width="30" height="60" as="geometry" />
        </mxCell>
        <mxCell id="-RKkQt0E2VqLK8YI1WEQ-10" value="" style="edgeStyle=orthogonalEdgeStyle;rounded=0;orthogonalLoop=1;jettySize=auto;html=1;" parent="1" source="-RKkQt0E2VqLK8YI1WEQ-4" target="-RKkQt0E2VqLK8YI1WEQ-9" edge="1">
          <mxGeometry relative="1" as="geometry" />
        </mxCell>
        <mxCell id="-RKkQt0E2VqLK8YI1WEQ-4" value="backend&lt;div&gt;[API Rest]&lt;/div&gt;" style="rounded=0;whiteSpace=wrap;html=1;" parent="1" vertex="1">
          <mxGeometry x="250" y="30" width="120" height="60" as="geometry" />
        </mxCell>
        <mxCell id="-RKkQt0E2VqLK8YI1WEQ-18" style="edgeStyle=orthogonalEdgeStyle;rounded=0;orthogonalLoop=1;jettySize=auto;html=1;entryX=0.5;entryY=0;entryDx=0;entryDy=0;" parent="1" source="-RKkQt0E2VqLK8YI1WEQ-9" target="-RKkQt0E2VqLK8YI1WEQ-17" edge="1">
          <mxGeometry relative="1" as="geometry" />
        </mxCell>
        <mxCell id="-RKkQt0E2VqLK8YI1WEQ-9" value="Validar Antifraude&lt;div&gt;[Serviço Terceiro]&lt;/div&gt;" style="rounded=0;whiteSpace=wrap;html=1;fillColor=#fff2cc;strokeColor=#d6b656;" parent="1" vertex="1">
          <mxGeometry x="510" y="30" width="120" height="60" as="geometry" />
        </mxCell>
        <mxCell id="-RKkQt0E2VqLK8YI1WEQ-27" style="edgeStyle=orthogonalEdgeStyle;rounded=0;orthogonalLoop=1;jettySize=auto;html=1;" parent="1" source="-RKkQt0E2VqLK8YI1WEQ-11" target="-RKkQt0E2VqLK8YI1WEQ-26" edge="1">
          <mxGeometry relative="1" as="geometry" />
        </mxCell>
        <mxCell id="-RKkQt0E2VqLK8YI1WEQ-11" value="Reserva Poltrona&lt;div&gt;[Serviço Próprio]&lt;/div&gt;" style="rounded=0;whiteSpace=wrap;html=1;fillColor=#dae8fc;strokeColor=#6c8ebf;" parent="1" vertex="1">
          <mxGeometry x="510" y="230" width="120" height="60" as="geometry" />
        </mxCell>
        <mxCell id="-RKkQt0E2VqLK8YI1WEQ-33" style="edgeStyle=orthogonalEdgeStyle;rounded=0;orthogonalLoop=1;jettySize=auto;html=1;" parent="1" source="-RKkQt0E2VqLK8YI1WEQ-13" target="-RKkQt0E2VqLK8YI1WEQ-32" edge="1">
          <mxGeometry relative="1" as="geometry" />
        </mxCell>
        <mxCell id="-RKkQt0E2VqLK8YI1WEQ-13" value="Confirmação Pagamento&lt;div&gt;[Serviço Terceiro]&lt;/div&gt;" style="rounded=0;whiteSpace=wrap;html=1;fillColor=#fff2cc;strokeColor=#d6b656;" parent="1" vertex="1">
          <mxGeometry x="320" y="320" width="120" height="60" as="geometry" />
        </mxCell>
        <mxCell id="-RKkQt0E2VqLK8YI1WEQ-19" style="edgeStyle=orthogonalEdgeStyle;rounded=0;orthogonalLoop=1;jettySize=auto;html=1;" parent="1" source="-RKkQt0E2VqLK8YI1WEQ-17" target="-RKkQt0E2VqLK8YI1WEQ-11" edge="1">
          <mxGeometry relative="1" as="geometry" />
        </mxCell>
        <mxCell id="-RKkQt0E2VqLK8YI1WEQ-20" value="Sucesso" style="edgeLabel;html=1;align=center;verticalAlign=middle;resizable=0;points=[];" parent="-RKkQt0E2VqLK8YI1WEQ-19" vertex="1" connectable="0">
          <mxGeometry x="0.12" y="1" relative="1" as="geometry">
            <mxPoint as="offset" />
          </mxGeometry>
        </mxCell>
        <mxCell id="-RKkQt0E2VqLK8YI1WEQ-22" value="" style="edgeStyle=orthogonalEdgeStyle;rounded=0;orthogonalLoop=1;jettySize=auto;html=1;" parent="1" source="-RKkQt0E2VqLK8YI1WEQ-17" target="-RKkQt0E2VqLK8YI1WEQ-21" edge="1">
          <mxGeometry relative="1" as="geometry" />
        </mxCell>
        <mxCell id="-RKkQt0E2VqLK8YI1WEQ-23" value="Falha" style="edgeLabel;html=1;align=center;verticalAlign=middle;resizable=0;points=[];" parent="-RKkQt0E2VqLK8YI1WEQ-22" vertex="1" connectable="0">
          <mxGeometry x="-0.1556" relative="1" as="geometry">
            <mxPoint as="offset" />
          </mxGeometry>
        </mxCell>
        <mxCell id="-RKkQt0E2VqLK8YI1WEQ-17" value="" style="rhombus;whiteSpace=wrap;html=1;" parent="1" vertex="1">
          <mxGeometry x="550" y="140" width="40" height="40" as="geometry" />
        </mxCell>
        <mxCell id="-RKkQt0E2VqLK8YI1WEQ-25" value="" style="edgeStyle=orthogonalEdgeStyle;rounded=0;orthogonalLoop=1;jettySize=auto;html=1;" parent="1" source="-RKkQt0E2VqLK8YI1WEQ-21" target="-RKkQt0E2VqLK8YI1WEQ-24" edge="1">
          <mxGeometry relative="1" as="geometry" />
        </mxCell>
        <mxCell id="-RKkQt0E2VqLK8YI1WEQ-21" value="Retornar 400, cancelar pedido" style="whiteSpace=wrap;html=1;fillColor=#dae8fc;strokeColor=#6c8ebf;" parent="1" vertex="1">
          <mxGeometry x="680" y="130" width="120" height="60" as="geometry" />
        </mxCell>
        <mxCell id="-RKkQt0E2VqLK8YI1WEQ-24" value="" style="ellipse;whiteSpace=wrap;html=1;fillColor=#f8cecc;strokeColor=#b85450;" parent="1" vertex="1">
          <mxGeometry x="910" y="410" width="30" height="30" as="geometry" />
        </mxCell>
        <mxCell id="-RKkQt0E2VqLK8YI1WEQ-28" style="edgeStyle=orthogonalEdgeStyle;rounded=0;orthogonalLoop=1;jettySize=auto;html=1;entryX=1;entryY=0.5;entryDx=0;entryDy=0;" parent="1" source="-RKkQt0E2VqLK8YI1WEQ-26" target="-RKkQt0E2VqLK8YI1WEQ-13" edge="1">
          <mxGeometry relative="1" as="geometry" />
        </mxCell>
        <mxCell id="-RKkQt0E2VqLK8YI1WEQ-30" value="Sucesso" style="edgeLabel;html=1;align=center;verticalAlign=middle;resizable=0;points=[];" parent="-RKkQt0E2VqLK8YI1WEQ-28" vertex="1" connectable="0">
          <mxGeometry x="0.0182" relative="1" as="geometry">
            <mxPoint as="offset" />
          </mxGeometry>
        </mxCell>
        <mxCell id="-RKkQt0E2VqLK8YI1WEQ-29" style="edgeStyle=orthogonalEdgeStyle;rounded=0;orthogonalLoop=1;jettySize=auto;html=1;" parent="1" source="-RKkQt0E2VqLK8YI1WEQ-26" target="-RKkQt0E2VqLK8YI1WEQ-21" edge="1">
          <mxGeometry relative="1" as="geometry" />
        </mxCell>
        <mxCell id="-RKkQt0E2VqLK8YI1WEQ-31" value="Falha" style="edgeLabel;html=1;align=center;verticalAlign=middle;resizable=0;points=[];" parent="-RKkQt0E2VqLK8YI1WEQ-29" vertex="1" connectable="0">
          <mxGeometry x="-0.671" y="-1" relative="1" as="geometry">
            <mxPoint as="offset" />
          </mxGeometry>
        </mxCell>
        <mxCell id="-RKkQt0E2VqLK8YI1WEQ-26" value="" style="rhombus;whiteSpace=wrap;html=1;" parent="1" vertex="1">
          <mxGeometry x="550" y="330" width="40" height="40" as="geometry" />
        </mxCell>
        <mxCell id="-RKkQt0E2VqLK8YI1WEQ-35" style="edgeStyle=orthogonalEdgeStyle;rounded=0;orthogonalLoop=1;jettySize=auto;html=1;entryX=0.5;entryY=0;entryDx=0;entryDy=0;" parent="1" source="-RKkQt0E2VqLK8YI1WEQ-32" target="-RKkQt0E2VqLK8YI1WEQ-34" edge="1">
          <mxGeometry relative="1" as="geometry" />
        </mxCell>
        <mxCell id="-RKkQt0E2VqLK8YI1WEQ-37" value="Sucesso" style="edgeLabel;html=1;align=center;verticalAlign=middle;resizable=0;points=[];" parent="-RKkQt0E2VqLK8YI1WEQ-35" vertex="1" connectable="0">
          <mxGeometry x="-0.1333" y="-1" relative="1" as="geometry">
            <mxPoint as="offset" />
          </mxGeometry>
        </mxCell>
        <mxCell id="-RKkQt0E2VqLK8YI1WEQ-38" style="edgeStyle=orthogonalEdgeStyle;rounded=0;orthogonalLoop=1;jettySize=auto;html=1;" parent="1" source="-RKkQt0E2VqLK8YI1WEQ-32" target="-RKkQt0E2VqLK8YI1WEQ-40" edge="1">
          <mxGeometry relative="1" as="geometry">
            <mxPoint x="560" y="460" as="targetPoint" />
          </mxGeometry>
        </mxCell>
        <mxCell id="-RKkQt0E2VqLK8YI1WEQ-39" value="Falha" style="edgeLabel;html=1;align=center;verticalAlign=middle;resizable=0;points=[];" parent="-RKkQt0E2VqLK8YI1WEQ-38" vertex="1" connectable="0">
          <mxGeometry x="-0.2773" y="2" relative="1" as="geometry">
            <mxPoint as="offset" />
          </mxGeometry>
        </mxCell>
        <mxCell id="-RKkQt0E2VqLK8YI1WEQ-32" value="" style="rhombus;whiteSpace=wrap;html=1;" parent="1" vertex="1">
          <mxGeometry x="360" y="440" width="40" height="40" as="geometry" />
        </mxCell>
        <mxCell id="-RKkQt0E2VqLK8YI1WEQ-43" style="edgeStyle=orthogonalEdgeStyle;rounded=0;orthogonalLoop=1;jettySize=auto;html=1;entryX=0.5;entryY=0;entryDx=0;entryDy=0;" parent="1" source="-RKkQt0E2VqLK8YI1WEQ-34" target="-RKkQt0E2VqLK8YI1WEQ-42" edge="1">
          <mxGeometry relative="1" as="geometry" />
        </mxCell>
        <mxCell id="-RKkQt0E2VqLK8YI1WEQ-34" value="Gerar Imagem do ingresso&lt;div&gt;[Serviço Próprio]&lt;/div&gt;" style="rounded=0;whiteSpace=wrap;html=1;fillColor=#dae8fc;strokeColor=#6c8ebf;align=center;verticalAlign=middle;fontFamily=Helvetica;fontSize=12;fontColor=default;" parent="1" vertex="1">
          <mxGeometry x="320" y="540" width="120" height="60" as="geometry" />
        </mxCell>
        <mxCell id="-RKkQt0E2VqLK8YI1WEQ-41" style="edgeStyle=orthogonalEdgeStyle;rounded=0;orthogonalLoop=1;jettySize=auto;html=1;entryX=0.5;entryY=1;entryDx=0;entryDy=0;" parent="1" source="-RKkQt0E2VqLK8YI1WEQ-40" target="-RKkQt0E2VqLK8YI1WEQ-21" edge="1">
          <mxGeometry relative="1" as="geometry" />
        </mxCell>
        <mxCell id="-RKkQt0E2VqLK8YI1WEQ-40" value="Liberar Poltrona&lt;div&gt;[Serviço Próprio]&lt;/div&gt;" style="rounded=0;whiteSpace=wrap;html=1;fillColor=#dae8fc;strokeColor=#6c8ebf;" parent="1" vertex="1">
          <mxGeometry x="510" y="430" width="120" height="60" as="geometry" />
        </mxCell>
        <mxCell id="-RKkQt0E2VqLK8YI1WEQ-45" style="edgeStyle=orthogonalEdgeStyle;rounded=0;orthogonalLoop=1;jettySize=auto;html=1;" parent="1" source="-RKkQt0E2VqLK8YI1WEQ-42" target="-RKkQt0E2VqLK8YI1WEQ-44" edge="1">
          <mxGeometry relative="1" as="geometry" />
        </mxCell>
        <mxCell id="-RKkQt0E2VqLK8YI1WEQ-42" value="Enviar email do ingresso&lt;div&gt;[Serviço Terceiro]&lt;/div&gt;" style="rounded=0;whiteSpace=wrap;html=1;fillColor=#fff2cc;strokeColor=#d6b656;align=center;verticalAlign=middle;fontFamily=Helvetica;fontSize=12;fontColor=default;" parent="1" vertex="1">
          <mxGeometry x="320" y="660" width="120" height="60" as="geometry" />
        </mxCell>
        <mxCell id="-RKkQt0E2VqLK8YI1WEQ-46" style="edgeStyle=orthogonalEdgeStyle;rounded=0;orthogonalLoop=1;jettySize=auto;html=1;entryX=0.5;entryY=1;entryDx=0;entryDy=0;" parent="1" source="-RKkQt0E2VqLK8YI1WEQ-44" target="-RKkQt0E2VqLK8YI1WEQ-24" edge="1">
          <mxGeometry relative="1" as="geometry" />
        </mxCell>
        <mxCell id="-RKkQt0E2VqLK8YI1WEQ-44" value="Retorna 200&lt;div&gt;Finaliza pedido&lt;/div&gt;" style="rounded=0;whiteSpace=wrap;html=1;fillColor=#dae8fc;strokeColor=#6c8ebf;align=center;verticalAlign=middle;fontFamily=Helvetica;fontSize=12;fontColor=default;" parent="1" vertex="1">
          <mxGeometry x="530" y="660" width="120" height="60" as="geometry" />
        </mxCell>
        <mxCell id="-RKkQt0E2VqLK8YI1WEQ-47" value="[MongoDB]&lt;br&gt;evento&lt;div&gt;poltrona&lt;/div&gt;&lt;div&gt;cliente (nome, email, data de nascimento, endereço)&lt;/div&gt;&lt;div&gt;data&lt;/div&gt;&lt;div&gt;valor&lt;/div&gt;&lt;div&gt;cartão de crédito&lt;/div&gt;" style="shape=cylinder3;whiteSpace=wrap;html=1;boundedLbl=1;backgroundOutline=1;size=15;" parent="1" vertex="1">
          <mxGeometry x="230" y="120" width="150" height="160" as="geometry" />
        </mxCell>
      </root>
    </mxGraphModel>
  </diagram>
</mxfile>
